HIERARCHY
ROOT Hips
{
	OFFSET 0.00000 0.00000 0.00000
	CHANNELS 6 Xposition Yposition Zposition Zrotation Yrotation Xrotation 
	JOINT LHipJoint
	{
		OFFSET 0 0 0
		CHANNELS 3 Zrotation Yrotation Xrotation
		JOINT LeftHip
		{
			OFFSET 1.84395 -1.68683 0.74144
			CHANNELS 3 Zrotation Yrotation Xrotation
			JOINT LeftKnee
			{
				OFFSET 2.27037 -6.23779 0.00000
				CHANNELS 3 Zrotation Yrotation Xrotation
				JOINT LeftAnkle
				{
					OFFSET 2.56918 -7.05877 0.00000
					CHANNELS 3 Zrotation Yrotation Xrotation
					JOINT LeftToe
					{
						OFFSET 0.22276 -0.61202 1.71784
						CHANNELS 3 Zrotation Yrotation Xrotation
						End Site
						{
							OFFSET 0.00000 -0.00000 0.91613
						}
					}
				}
			}
		}
	}
	JOINT RHipJoint
	{
		OFFSET 0 0 0
		CHANNELS 3 Zrotation Yrotation Xrotation
		JOINT RightHip
		{
			OFFSET -1.76833 -1.68684 0.74144
			CHANNELS 3 Zrotation Yrotation Xrotation
			JOINT RightKnee
			{
				OFFSET -2.49360 -6.85110 0.00000
				CHANNELS 3 Zrotation Yrotation Xrotation
				JOINT RightAnkle
				{
					OFFSET -2.55538 -7.02085 0.00000
					CHANNELS 3 Zrotation Yrotation Xrotation
					JOINT RightToe
					{
						OFFSET -0.21516 -0.59115 1.68050
						CHANNELS 3 Zrotation Yrotation Xrotation
						End Site
						{
							OFFSET -0.00000 -0.00000 0.89604
						}
					}
				}
			}
		}
	}
	JOINT lowerback
	{
		OFFSET 0 0 0
		CHANNELS 3 Zrotation Yrotation Xrotation
		JOINT Chest
		{
			OFFSET 0.06382 1.72312 -0.19613
			CHANNELS 3 Zrotation Yrotation Xrotation
			JOINT Chest2
			{
				OFFSET -0.00055 1.73507 0.23859
				CHANNELS 3 Zrotation Yrotation Xrotation
				JOINT lowerneck
				{
					OFFSET 0 0 0
					CHANNELS 3 Zrotation Yrotation Xrotation
					JOINT Neck
					{
						OFFSET 0.03638 1.65562 0.09633
						CHANNELS 3 Zrotation Yrotation Xrotation
						JOINT Head
						{
							OFFSET 0.06388 1.62807 -0.32386
							CHANNELS 3 Zrotation Yrotation Xrotation
							End Site
							{
								OFFSET 0.00995 1.67644 -0.12021
							}
						}
					}
				}
				JOINT LeftCollar
				{
					OFFSET 0 0 0
					CHANNELS 3 Zrotation Yrotation Xrotation
					JOINT LeftShoulder
					{
						OFFSET 3.09648 1.42991 0.28122
CHANNELS 3 Zrotation Xrotation Yrotation
						JOINT LeftElbow
						{
OFFSET 0 -5.118780 -0.000000
CHANNELS 3 Zrotation Xrotation Yrotation
							JOINT LeftWrist
							{
OFFSET 0 -3.599710 0.000000
CHANNELS 3 Zrotation Xrotation Yrotation
								JOINT lhand
								{
									OFFSET 0 0 0
CHANNELS 3 Zrotation Xrotation Yrotation
									JOINT LFingers
									{
OFFSET 0 -0.628770 0.000000
CHANNELS 3 Zrotation Xrotation Yrotation
										End Site
										{
OFFSET 0 -0.506930 0.000000
										}
									}
								}
								JOINT LThumb
								{
OFFSET 0 0.000000 0.000000
CHANNELS 3 Zrotation Xrotation Yrotation
									End Site
									{
OFFSET 0 -0.514670 0.514670
									}
								}
							}
						}
					}
				}
				JOINT RightCollar
				{
					OFFSET 0 0 0
					CHANNELS 3 Zrotation Yrotation Xrotation
					JOINT RightShoulder
					{
						OFFSET -3.33565 1.14597 0.05047
CHANNELS 3 Zrotation Xrotation Yrotation
						JOINT RightElbow
						{
OFFSET 0 -5.490200 0.000000
CHANNELS 3 Zrotation Xrotation Yrotation
							JOINT RightWrist
							{
OFFSET 0 -3.206590 -0.000000
CHANNELS 3 Zrotation Xrotation Yrotation
								JOINT rhand
								{
									OFFSET 0 0 0
CHANNELS 3 Zrotation Xrotation Yrotation
									JOINT RFingers
									{
OFFSET 0 -0.691880 0.000000
CHANNELS 3 Zrotation Xrotation Yrotation
										End Site
										{
OFFSET 0 -0.557810 0.000000
										}
									}
								}
								JOINT RThumb
								{
OFFSET 0 0.000000 0.000000
CHANNELS 3 Zrotation Xrotation Yrotation
									End Site
									{
OFFSET 0 -0.566330 0.566330
									}
								}
							}
						}
					}
				}
			}
		}
	}
}
MOTION
Frames: 6
Frame Time: 0.008333333333333333
0.660800 17.410100 8.747800 -9.736100 1.743100 9.171500 0.000000 0.000000 0.000000 -14.508600 -41.696800 20.845200 0.056900 -1.538800 -4.232600 -5.427300 41.209000 -37.714000 0.214200 2.979300 8.221100 0.000000 0.000000 0.000000 28.158800 24.583300 4.486700 -0.017900 -0.864100 2.374900 1.042700 -21.523700 -21.216600 -0.029500 -1.109500 3.050200 6.294600 0.474600 -1.657000 2.201900 1.017900 -9.296900 -1.237700 0.121000 -8.839700 -4.364800 -5.045400 -9.692700 8.188300 -8.317700 23.662600 2.624300 -3.433100 9.587600 0.000000 -0.000000 0.000000 -4.676900 14.256800 5.499100 13.155200 -21.514200 2.509900 19.653800 17.823400 8.174900 0.000000 0.000000 0.000000 -7.125000 0.000000 0.000000 -5.212900 21.321400 -2.972800 0.000000 -0.000000 0.000000 2.293600 10.300000 -6.191200 -12.796400 -20.988100 -2.379900 7.511500 43.535400 29.740600 0.000000 0.000000 0.000000 7.125000 0.000000 -0.000000 40.407100 54.893700 -11.166900
0.661614 17.409295 8.756986 -9.688593 1.731239 9.226631 0.000000 0.000000 0.000000 -14.728383 -41.917913 21.085137 0.058305 -1.558341 -4.286613 -5.469703 41.405894 -38.060341 0.217933 3.005134 8.293072 0.000000 0.000000 0.000000 28.106608 24.625983 4.532788 -0.016995 -0.841201 2.311930 1.055135 -21.570298 -21.171467 -0.024700 -1.015319 2.790979 6.318065 0.525684 -1.726454 2.190387 1.081471 -9.310545 -1.265878 0.150665 -8.809464 -4.341383 -5.083726 -9.688725 8.066498 -8.347081 23.680312 2.574507 -3.456981 9.588571 0.000000 0.000000 0.000000 -4.721468 14.202259 5.009689 13.268968 -21.680055 2.551802 20.004717 16.982921 8.861198 0.000000 0.000000 0.000000 -7.125000 0.000000 0.000000 -4.961695 20.575788 -2.912133 0.000000 0.000000 0.000000 2.177580 10.257150 -6.801755 -12.714628 -20.867708 -2.350661 7.555842 44.123102 29.731133 0.000000 0.000000 0.000000 7.125000 0.000000 0.000000 40.438745 54.877630 -11.161137
0.663518 17.409245 8.763588 -9.649668 1.737169 9.320310 0.000000 0.000000 0.000000 -14.930256 -42.231739 21.278527 0.057672 -1.549592 -4.262432 -5.427404 41.500573 -38.566057 0.260128 3.281008 9.062174 0.000000 0.000000 0.000000 28.015035 24.654109 4.442292 -0.017291 -0.848274 2.331448 1.037110 -21.520590 -21.276784 -0.034325 -1.195462 3.286635 6.338279 0.538145 -1.719435 2.171075 1.102116 -9.376097 -1.298151 0.155380 -8.885328 -4.316049 -5.150884 -9.786730 7.983806 -8.439067 23.831864 2.528978 -3.499985 9.662835 0.000000 0.000000 0.000000 -4.752455 14.234971 4.599457 13.365384 -21.820245 2.587497 19.718708 17.011350 8.096908 0.000000 0.000000 0.000000 -7.125000 0.000000 0.000000 -5.165915 21.400021 -2.936603 0.000000 0.000000 0.000000 2.105134 10.168141 -7.167455 -12.640318 -20.758017 -2.324261 7.491309 44.410905 29.825580 0.000000 0.000000 0.000000 7.125000 0.000000 0.000000 40.462421 54.964042 -11.260656
0.664200 17.409200 8.775527 -9.669620 1.797378 9.289294 0.000000 0.000000 0.000000 -15.034802 -42.273593 21.467633 0.059100 -1.568308 -4.313911 -5.533205 41.657054 -38.452691 0.228854 3.079330 8.499754 0.000000 0.000000 0.000000 28.119062 24.763773 4.641778 -0.016232 -0.822218 2.259759 1.062258 -21.709177 -21.398569 -0.036484 -1.232562 3.388993 6.380652 0.533809 -1.639544 2.177727 1.107631 -9.408350 -1.315547 0.152178 -8.968936 -4.672808 -5.250539 -9.579329 8.444067 -8.623313 23.708597 2.731058 -3.578261 9.631570 0.000000 0.000000 0.000000 -4.795457 14.188083 4.543315 13.370709 -21.827977 2.589511 20.141620 16.859835 8.665034 0.000000 0.000000 0.000000 -7.125000 0.000000 0.000000 -4.861875 20.774642 -2.831344 0.000000 0.000000 0.000000 2.042045 10.176283 -7.147767 -12.610626 -20.713959 -2.313767 7.408039 44.518144 29.528777 0.000000 0.000000 0.000000 7.125000 0.000000 0.000000 40.132597 54.747639 -10.917737
0.663508 17.408100 8.785079 -9.662504 1.834443 9.321721 0.000000 0.000000 0.000000 -15.151374 -42.448124 21.638132 0.059410 -1.572538 -4.325738 -5.582778 41.797560 -38.598792 0.231118 3.094254 8.541362 0.000000 0.000000 0.000000 28.118993 24.791288 4.672974 -0.015764 -0.811144 2.229350 1.079516 -21.789658 -21.373706 -0.035318 -1.213215 3.335554 6.629738 0.587234 -1.015626 1.985278 1.258799 -9.866650 -1.669750 0.165131 -9.842562 -4.530910 -5.607267 -9.486107 8.050831 -9.130174 24.383100 2.514482 -3.830515 9.866935 0.000000 0.000000 0.000000 -4.451242 15.101337 3.651693 13.522649 -22.048211 2.646264 19.671770 16.416761 8.214042 0.000000 0.000000 0.000000 -7.125000 0.000000 0.000000 -5.199915 21.279120 -2.970293 0.000000 0.000000 0.000000 2.381559 10.961587 -7.040924 -12.755414 -20.927727 -2.365210 7.380223 44.088065 29.636785 0.000000 0.000000 0.000000 7.125000 0.000000 0.000000 40.200049 54.837834 -11.035718
0.664480 17.409455 8.792634 -9.728819 1.842558 9.420488 0.000000 0.000000 0.000000 -15.093892 -42.603608 21.673736 0.059945 -1.579386 -4.344545 -5.619643 41.927828 -38.783419 0.234788 3.117751 8.606862 0.000000 0.000000 0.000000 28.169373 24.891743 4.612411 -0.015823 -0.811828 2.231094 1.076408 -21.812507 -21.462155 -0.036903 -1.240203 3.410031 6.415331 0.483213 -1.734536 2.230519 1.037172 -9.430239 -1.273468 0.117568 -8.943677 -4.590801 -5.409515 -9.611899 8.210846 -8.815904 23.794081 2.611706 -3.682645 9.667939 0.000000 0.000000 0.000000 -4.787611 14.246436 4.149006 13.494435 -22.007357 2.635705 19.675535 16.549017 8.304750 0.000000 0.000000 0.000000 -7.125000 0.000000 0.000000 -5.197142 21.183277 -2.980082 0.000000 0.000000 0.000000 2.094882 10.140430 -6.331153 -12.752265 -20.923075 -2.364091 7.416051 43.934815 29.691322 0.000000 0.000000 0.000000 7.125000 0.000000 0.000000 40.278898 54.873568 -11.100721
